<svg width="29" height="29" viewBox="0 0 29 29" fill="none" xmlns="http://www.w3.org/2000/svg">
<path d="M6.33333 26.1667H22.6667C23.2855 26.1667 23.879 25.9208 24.3166 25.4832C24.7542 25.0457 25 24.4522 25 23.8333V11C25 10.6906 24.8771 10.3938 24.6583 10.175C24.4395 9.95624 24.1428 9.83333 23.8333 9.83333H20.3333V8.92683C20.3333 5.88299 18.1132 3.15766 15.0833 2.86249C14.2724 2.78189 13.4535 2.87194 12.6794 3.12686C11.9053 3.38177 11.1932 3.79591 10.5888 4.34261C9.98437 4.88932 9.50111 5.55649 9.17007 6.3012C8.83904 7.04592 8.66756 7.85168 8.66667 8.66666V9.83333H5.16667C4.85725 9.83333 4.5605 9.95624 4.34171 10.175C4.12292 10.3938 4 10.6906 4 11V23.8333C4 24.4522 4.24583 25.0457 4.68342 25.4832C5.121 25.9208 5.71449 26.1667 6.33333 26.1667ZM20.3333 12.1667V14.5H18V12.1667H20.3333ZM11 8.66666C11 6.73699 12.5703 5.16666 14.5 5.16666C16.4297 5.16666 18 6.73699 18 8.66666V9.83333H11V8.66666ZM8.66667 12.1667H11V14.5H8.66667V12.1667Z" fill="#2A134E"/>
</svg>
